<?xml version="1.0"?>
<svg xmlns="http://www.w3.org/2000/svg" xmlns:xlink="http://www.w3.org/1999/xlink" xmlns:svgjs="http://svgjs.com/svgjs" version="1.1" width="512" height="512" x="0" y="0" viewBox="0 0 512 512" style="enable-background:new 0 0 512 512" xml:space="preserve" class=""><circle r="256" cx="256" cy="256" fill="#525357" shape="circle"/><g transform="matrix(0.7,0,0,0.7,76.80000000000001,76.80000000000001)">
<g xmlns="http://www.w3.org/2000/svg">
	<path style="" d="M107.616,141.472c14.96-2.496,34.552-4.632,59.488-4.632c30.632,0,53.08,7.128,67.32,19.944   c13.176,11.4,21.024,28.848,21.024,50.224c0,21.728-6.416,38.832-18.52,51.288c-16.392,17.456-43.104,26.36-73.384,26.36   c-9.256,0-17.808-0.352-24.928-2.136v96.168h-30.992V141.472H107.616z M138.608,257.24c6.768,1.784,15.312,2.496,25.648,2.496   c37.4,0,60.192-18.168,60.192-51.296c0-31.704-22.448-47.016-56.64-47.016c-13.528,0-23.856,1.072-29.2,2.496V257.24z" fill="#5c8685" data-original="#6b6b6b" class=""/>
	<path style="" d="M292.84,340.944c13.888,8.544,34.192,15.672,55.568,15.672c31.696,0,50.216-16.744,50.216-40.96   c0-22.448-12.824-35.264-45.232-47.736c-39.176-13.888-63.408-34.192-63.408-68.032c0-37.4,30.992-65.184,77.656-65.184   c24.576,0,42.384,5.704,53.072,11.76l-8.544,25.288c-7.832-4.272-23.864-11.4-45.592-11.4c-32.776,0-45.232,19.592-45.232,35.976   c0,22.44,14.6,33.488,47.728,46.304c40.608,15.672,61.264,35.264,61.264,70.528c0,37.048-27.432,69.104-84.064,69.104   c-23.16,0-48.448-6.768-61.264-15.32L292.84,340.944z" fill="#5c8685" data-original="#6b6b6b" class=""/>
</g>
<path xmlns="http://www.w3.org/2000/svg" style="" d="M504,8v496H8V8H504 M512,0H0v512h512V0L512,0z" fill="#c3c498" data-original="#f91e1e" class=""/>
<g xmlns="http://www.w3.org/2000/svg">
</g>
<g xmlns="http://www.w3.org/2000/svg">
</g>
<g xmlns="http://www.w3.org/2000/svg">
</g>
<g xmlns="http://www.w3.org/2000/svg">
</g>
<g xmlns="http://www.w3.org/2000/svg">
</g>
<g xmlns="http://www.w3.org/2000/svg">
</g>
<g xmlns="http://www.w3.org/2000/svg">
</g>
<g xmlns="http://www.w3.org/2000/svg">
</g>
<g xmlns="http://www.w3.org/2000/svg">
</g>
<g xmlns="http://www.w3.org/2000/svg">
</g>
<g xmlns="http://www.w3.org/2000/svg">
</g>
<g xmlns="http://www.w3.org/2000/svg">
</g>
<g xmlns="http://www.w3.org/2000/svg">
</g>
<g xmlns="http://www.w3.org/2000/svg">
</g>
<g xmlns="http://www.w3.org/2000/svg">
</g>
</g></svg>
